<svg width="24" height="24" viewBox="0 0 24 24" fill="none" xmlns="http://www.w3.org/2000/svg"><path d="M12 0c-.825 0-1.612.075-2.55.487-.937.413-1.443.803-2.025 1.538-.712.9-1.087 2.212-1.012 3.3.075 1.087.15 1.65.225 2.025.083.416.134.65.17.818l.017.082a.54.54 0 0 0-.187.112.877.877 0 0 0-.225.563 2.95 2.95 0 0 0 .15 1.012l.083.288c.059.2.117.4.142.5l.022.095c.042.178.11.468.203.655.131.262.225.412.337.45.09.03.188.037.225.037.025.188.09.638.15.938.075.375.188.9.3 1.237.175.525.375.9.563 1.2.15.24.212.325.225.338V18c0 .262-.06.606-.113.712-.075.15-.562.45-1.087.6-.283.081-.9.195-1.534.312-.543.1-1.098.202-1.466.288-1.125.263-2.25.75-3.038 1.388-.975.789-1.2 1.237-1.35 1.612-.14.352-.16.474-.182.61l-.005.028C0 23.775 0 23.925 0 24h24c0-.075 0-.225-.037-.45l-.005-.028c-.022-.136-.042-.258-.182-.61-.15-.375-.375-.823-1.35-1.612-.788-.638-1.913-1.125-3.038-1.388a37.21 37.21 0 0 0-1.466-.288c-.634-.117-1.251-.23-1.534-.312-.525-.15-1.013-.45-1.088-.6-.053-.106-.112-.45-.112-.712v-2.325c.012-.013.075-.098.225-.338.188-.3.387-.675.563-1.2.112-.337.225-.862.3-1.237.06-.3.125-.75.15-.938a.803.803 0 0 0 .225-.037c.112-.038.206-.188.337-.45.093-.187.16-.476.203-.655l.022-.095c.025-.1.083-.3.142-.5l.083-.288.014-.049c.07-.243.136-.471.136-.963a.877.877 0 0 0-.225-.563.54.54 0 0 0-.188-.112l.018-.082c.036-.168.087-.402.17-.818.075-.375.15-.938.225-2.025.075-1.088-.3-2.4-1.012-3.3C15.994 1.29 15.488.9 14.55.487 13.614.075 12.825 0 12 0z" fill="#3A97F4"/></svg>