<svg width="38" height="24" viewBox="0 0 38 24" fill="none" xmlns="http://www.w3.org/2000/svg"><path d="M9.45.487C10.388.075 11.176 0 12 0c.825 0 1.613.075 2.55.487.938.413 1.444.803 2.026 1.538.712.9 1.087 2.212 1.012 3.3-.075 1.087-.15 1.65-.225 2.025-.083.416-.134.65-.17.818l-.018.082a.54.54 0 0 1 .188.112c.075.075.225.3.225.563 0 .492-.066.72-.136.963l-.014.05-.083.287c-.059.2-.117.4-.142.5l-.023.095c-.041.178-.109.468-.202.655-.131.262-.225.412-.337.45a.803.803 0 0 1-.226.037c-.024.188-.09.638-.15.938-.074.375-.187.9-.3 1.237-.175.525-.374.9-.562 1.2-.15.24-.213.325-.225.338V18c0 .262.06.606.112.712.075.15.563.45 1.088.6.283.081.9.195 1.534.312.375.07.757.14 1.078.205.322-.066.703-.136 1.079-.205.634-.117 1.251-.23 1.534-.312.525-.15 1.012-.45 1.088-.6.052-.106.112-.45.112-.712v-2.325a3.535 3.535 0 0 1-.225-.338 5.433 5.433 0 0 1-.563-1.2c-.112-.337-.224-.862-.3-1.237-.06-.3-.125-.75-.15-.938a.803.803 0 0 1-.224-.037c-.113-.038-.207-.188-.338-.45-.093-.187-.16-.476-.203-.655l-.022-.095c-.025-.1-.083-.3-.142-.5l-.083-.288-.014-.049c-.07-.243-.136-.471-.136-.963 0-.263.15-.488.225-.563.06-.06.15-.1.188-.112l-.018-.082a50.15 50.15 0 0 1-.17-.818c-.075-.375-.15-.938-.225-2.025-.075-1.088.3-2.4 1.012-3.3C22.008 1.29 22.514.9 23.451.487 24.388.075 25.175 0 26 0c.825 0 1.612.075 2.55.487.937.413 1.443.803 2.025 1.538.712.9 1.087 2.212 1.012 3.3-.075 1.087-.15 1.65-.225 2.025-.083.416-.134.65-.17.818l-.018.082a.54.54 0 0 1 .188.112c.075.075.225.3.225.563 0 .492-.066.72-.136.963l-.014.05-.083.287c-.059.2-.117.4-.142.5l-.023.094c-.041.18-.109.47-.202.656-.131.262-.225.412-.337.45a.803.803 0 0 1-.226.037c-.024.188-.09.638-.15.938-.074.375-.187.9-.3 1.237-.175.525-.375.9-.562 1.2-.15.24-.212.325-.225.338V18c0 .262.06.606.113.712.075.15.562.45 1.087.6.283.081.9.195 1.534.312.543.1 1.098.202 1.466.288 1.125.263 2.25.75 3.038 1.388.974.789 1.2 1.237 1.35 1.612.14.352.16.474.182.61l.005.028c.038.225.038.375.038.45H0c0-.075 0-.225.037-.45l.005-.028c.022-.136.042-.258.182-.61.15-.375.375-.823 1.35-1.612.788-.638 1.913-1.125 3.038-1.388.368-.086.923-.188 1.466-.288.634-.117 1.251-.23 1.534-.312.525-.15 1.012-.45 1.087-.6.054-.106.113-.45.113-.712v-2.325a3.535 3.535 0 0 1-.225-.338 5.433 5.433 0 0 1-.563-1.2c-.112-.337-.225-.862-.3-1.237-.06-.3-.125-.75-.15-.938a.803.803 0 0 1-.225-.037c-.112-.038-.206-.188-.337-.45-.093-.187-.16-.476-.203-.655a6.092 6.092 0 0 0-.022-.095c-.025-.1-.083-.3-.142-.5l-.083-.288-.014-.049a2.95 2.95 0 0 1-.136-.963c0-.263.15-.488.225-.563.06-.06.15-.1.187-.112l-.017-.082a49.938 49.938 0 0 1-.17-.818c-.075-.375-.15-.938-.225-2.025-.075-1.088.3-2.4 1.012-3.3C8.007 1.29 8.513.9 9.45.487z" fill="#3A97F4"/></svg>