<svg width="109" height="49" viewBox="0 0 109 49" fill="none" xmlns="http://www.w3.org/2000/svg"><path d="M17.585 48.636c10.364 0 17.41-6.75 17.387-16.159.022-8.909-6.205-15.318-14.591-15.318-4.091 0-7.614 1.705-9.25 4h-.273L12.062 9.5h20.341V1.455H3.95L1.744 26l8.75 1.568c1.432-1.932 4.205-3.136 6.955-3.136 4.682.023 8.045 3.409 8.045 8.295 0 4.841-3.295 8.182-7.909 8.182-3.909 0-7.068-2.454-7.295-6.068H.744c.182 8.045 7.205 13.795 16.841 13.795zm41.455 0c10.454 0 17.932-5.75 17.909-13.704.023-5.796-3.66-9.932-10.5-10.796v-.363c5.204-.932 8.795-4.614 8.773-9.841C75.244 6.59 68.812.818 59.176.818c-9.545 0-16.727 5.591-16.864 13.636h9.432c.114-3.545 3.364-5.84 7.387-5.84 3.977 0 6.636 2.409 6.613 5.909.023 3.659-3.09 6.136-7.568 6.136h-4.34v7.227h4.34c5.273 0 8.568 2.637 8.546 6.387.022 3.704-3.16 6.25-7.66 6.25-4.34 0-7.59-2.273-7.772-5.682h-9.91c.16 8.136 7.432 13.795 17.66 13.795zm37.663-5.545c.013 3.145 2.02 5.817 5.766 5.817 3.707 0 5.778-2.672 5.765-5.817v-1.38c.013-3.171-2.007-5.817-5.765-5.817-3.695 0-5.753 2.671-5.766 5.816v1.38zM83.267 28.108c.013 3.145 2.02 5.791 5.753 5.791 3.72 0 5.791-2.62 5.778-5.791v-1.38c.013-3.171-2.007-5.818-5.778-5.818-3.656 0-5.74 2.647-5.753 5.817v1.381zM84.52 48h3.337l18-26.182h-3.337L84.52 48zm15.903-6.29c.013-1.253.512-2.544 2.046-2.544 1.611 0 2.032 1.291 2.02 2.544v1.38c.012 1.254-.461 2.52-2.02 2.52-1.56 0-2.033-1.305-2.046-2.52v-1.38zm-13.41-14.983c.013-1.214.486-2.544 2.007-2.544 1.61 0 2.045 1.291 2.033 2.544v1.381c.012 1.253-.474 2.518-2.033 2.518-1.509 0-1.994-1.265-2.007-2.518v-1.38z" fill="#87BD75"/></svg>