<svg width="94" height="52" viewBox="0 0 94 52" fill="none" xmlns="http://www.w3.org/2000/svg"><path d="M17.523 47.636c10.363 0 17.409-6.75 17.386-16.159.023-8.909-6.204-15.318-14.59-15.318-4.092 0-7.614 1.705-9.25 4h-.274L12 8.5h20.34V.455H3.887L1.682 25l8.75 1.568c1.432-1.932 4.204-3.136 6.954-3.136 4.682.023 8.046 3.409 8.046 8.295 0 4.841-3.296 8.182-7.91 8.182-3.908 0-7.067-2.454-7.295-6.068H.682c.182 8.045 7.204 13.795 16.84 13.795zm26.75-.423c2.113 0 3.213-1.219 3.716-2.31h.153V47h3.58V29.546h-3.623v6.562h-.11c-.486-1.065-1.534-2.37-3.725-2.37-2.872 0-5.3 2.234-5.3 6.734 0 4.38 2.326 6.741 5.309 6.741zm1.15-2.89c-1.781 0-2.753-1.584-2.753-3.868 0-2.267.955-3.827 2.753-3.827 1.764 0 2.753 1.491 2.753 3.827 0 2.335-1.006 3.869-2.753 3.869zm13.017 2.924c1.934 0 3.187-.844 3.826-2.062h.103V47h3.443v-8.83c0-3.119-2.642-4.431-5.557-4.431-3.136 0-5.199 1.5-5.702 3.886l3.358.273c.247-.87 1.023-1.509 2.327-1.509 1.236 0 1.943.622 1.943 1.696v.051c0 .844-.895.955-3.17 1.176-2.591.24-4.918 1.108-4.918 4.032 0 2.59 1.85 3.903 4.347 3.903zm1.04-2.505c-1.117 0-1.918-.52-1.918-1.518 0-1.022.844-1.525 2.122-1.704.793-.11 2.088-.298 2.523-.588v1.389c0 1.372-1.134 2.42-2.728 2.42zM70.4 51.909c2.702 0 4.134-1.38 4.875-3.494l5.088-14.489-3.843-.017-2.736 9.614h-.137l-2.71-9.614H67.12l4.696 13.466-.213.554c-.477 1.227-1.39 1.287-2.668.895l-.818 2.71c.52.222 1.364.375 2.284.375zm22.713-14.267c-.324-2.412-2.267-3.903-5.574-3.903-3.349 0-5.556 1.55-5.548 4.074-.008 1.96 1.227 3.23 3.784 3.741l2.267.452c1.142.23 1.662.647 1.68 1.304-.018.775-.861 1.33-2.131 1.33-1.296 0-2.157-.555-2.378-1.62l-3.571.187c.34 2.506 2.471 4.049 5.94 4.049 3.392 0 5.821-1.73 5.83-4.313-.009-1.892-1.245-3.025-3.784-3.545l-2.37-.478c-1.219-.264-1.67-.681-1.662-1.312-.008-.784.878-1.295 2.003-1.295 1.262 0 2.012.69 2.19 1.534l3.324-.205z" fill="#A48CEA"/></svg>