<svg width="105" height="49" viewBox="0 0 105 49" fill="none" xmlns="http://www.w3.org/2000/svg"><path d="M3.957 48h10.16L33.434 9.614v-8.16H.775V9.5h22.478v.318L3.957 48zm36.222 0h33.182v-8.045H53.815v-.319l6.796-6.659c9.568-8.727 12.136-13.09 12.136-18.386 0-8.068-6.59-13.773-16.568-13.773-9.773 0-16.477 5.841-16.455 14.978h9.341c-.022-4.455 2.796-7.182 7.046-7.182 4.09 0 7.136 2.545 7.136 6.636 0 3.704-2.273 6.25-6.5 10.318L40.18 40.91V48zm52.993-4.91c.013 3.146 2.02 5.818 5.766 5.818 3.707 0 5.778-2.672 5.765-5.817v-1.38c.013-3.171-2.007-5.817-5.766-5.817-3.694 0-5.752 2.671-5.765 5.816v1.38zM79.736 28.109c.013 3.145 2.02 5.791 5.753 5.791 3.72 0 5.79-2.62 5.778-5.791v-1.38c.013-3.171-2.007-5.818-5.778-5.818-3.657 0-5.74 2.647-5.753 5.817v1.381zM80.989 48h3.336l18-26.182h-3.336L80.989 48zm15.903-6.29c.013-1.253.511-2.544 2.046-2.544 1.61 0 2.032 1.291 2.019 2.544v1.38c.013 1.254-.46 2.52-2.02 2.52s-2.032-1.305-2.045-2.52v-1.38zm-13.41-14.983c.012-1.214.485-2.544 2.007-2.544 1.61 0 2.045 1.291 2.032 2.544v1.381c.013 1.253-.473 2.518-2.032 2.518-1.509 0-1.995-1.265-2.008-2.518v-1.38z" fill="#D2B360"/></svg>