<svg width="100" height="100" viewBox="0 0 100 100" fill="none" xmlns="http://www.w3.org/2000/svg"><rect width="100" height="100" rx="12" fill="#D2B360"/><path d="M78.168 46.096c0-6.16-4.613-11.271-10.594-12.115-.885-9.037-8.59-16.124-17.931-16.124-9.342 0-17.045 7.087-17.93 16.124-5.982.843-10.596 5.955-10.596 12.115 0 4.61 2.585 8.633 6.393 10.72a24.108 24.108 0 0 0 .358 7.397c.178.868.948 1.49 1.84 1.49h3.397c.099.252.203.5.312.746l-2.402 2.383a1.85 1.85 0 0 0-.238 2.344 24.58 24.58 0 0 0 6.938 6.88 1.89 1.89 0 0 0 2.364-.237l2.402-2.382c.249.11.5.212.753.31v3.368c0 .885.628 1.648 1.503 1.825a24.835 24.835 0 0 0 9.812 0 1.866 1.866 0 0 0 1.504-1.825v-3.368c.253-.098.504-.2.752-.31l2.402 2.382a1.89 1.89 0 0 0 2.364.237 24.563 24.563 0 0 0 6.938-6.88 1.85 1.85 0 0 0-.238-2.345l-2.402-2.381c.11-.246.214-.495.312-.746h3.396c.893 0 1.662-.624 1.84-1.491a24.23 24.23 0 0 0 .359-7.397c3.808-2.087 6.392-6.11 6.392-10.72zM68.154 59.35c0 .88-.056 1.76-.169 2.63h-3.144c-.83 0-1.562.54-1.8 1.33a13.729 13.729 0 0 1-1.1 2.628 1.851 1.851 0 0 0 .322 2.206l2.226 2.206a20.826 20.826 0 0 1-3.752 3.72l-2.225-2.207a1.89 1.89 0 0 0-2.224-.32c-.84.453-1.732.82-2.651 1.092a1.865 1.865 0 0 0-1.341 1.785v3.118a21.17 21.17 0 0 1-5.306 0v-3.118c0-.824-.545-1.55-1.34-1.785a13.99 13.99 0 0 1-2.652-1.092 1.89 1.89 0 0 0-2.224.32l-2.226 2.207a20.872 20.872 0 0 1-3.751-3.72l2.226-2.207a1.85 1.85 0 0 0 .322-2.205 13.732 13.732 0 0 1-1.1-2.628 1.877 1.877 0 0 0-1.8-1.33H31.3a20.58 20.58 0 0 1-.131-3.857 12.46 12.46 0 0 0 2.29.212h7.57c-.04.335-.06.673-.06 1.014 0 4.744 3.89 8.602 8.674 8.602 4.783 0 8.675-3.858 8.675-8.602 0-.341-.021-.679-.061-1.014h7.57c.782 0 1.547-.073 2.29-.212.024.41.037.819.037 1.227zm-13.7-1.014c.07.33.108.669.108 1.014 0 2.689-2.207 4.876-4.919 4.876-2.712 0-4.918-2.187-4.918-4.876 0-.345.037-.684.108-1.014h9.62zm11.373-3.726H51.52v-9.906l2.486 2.465a1.88 1.88 0 0 0 1.328.545c.48 0 .961-.182 1.328-.545a1.851 1.851 0 0 0 0-2.634l-5.692-5.644a1.89 1.89 0 0 0-2.656 0l-5.692 5.644a1.851 1.851 0 0 0 0 2.634 1.89 1.89 0 0 0 2.656 0l2.485-2.465v9.906H33.46c-4.734 0-8.585-3.819-8.585-8.513 0-4.687 3.84-8.501 8.565-8.512h.095a1.87 1.87 0 0 0 1.85-1.863c0-7.796 6.397-14.139 14.259-14.139s14.259 6.343 14.259 14.14c0 .497.2.973.555 1.322.352.347.828.54 1.323.54H65.851c4.722.012 8.56 3.826 8.56 8.512 0 4.695-3.85 8.514-8.584 8.514z" fill="#fff"/></svg>