<svg width="40" height="40" viewBox="0 0 40 40" fill="none" xmlns="http://www.w3.org/2000/svg"><path fill-rule="evenodd" clip-rule="evenodd" d="M8.801 0h22.376a8.836 8.836 0 0 1 8.794 8.801v22.376A8.842 8.842 0 0 1 31.17 40H8.8A8.829 8.829 0 0 1 0 31.177V8.801A8.825 8.825 0 0 1 8.801 0z" fill="#3A97F4"/><path fill-rule="evenodd" clip-rule="evenodd" d="M21.912 15.468v-1.94c0-.926.625-1.147 1.07-1.147h2.698V8.258h-3.727c-4.13 0-5.045 3.062-5.045 5.045v2.165h-2.406v4.814h2.416v12.03h4.814v-12.03h3.564l.161-1.894.283-2.91-3.828-.01z" fill="#FEFEFE"/></svg>