<svg width="186" height="39" viewBox="0 0 186 39" fill="none" xmlns="http://www.w3.org/2000/svg"><g clip-path="url(#a)"><path d="M0 30.243V16.671a4.73 4.73 0 0 1 3.454-4.555l10.46-2.929c3.555-.995 7.066 1.71 7.02 5.4-.125 9.985-.206 22.227.054 23.614.078.084.1.13.052.13-.019 0-.036-.044-.052-.13-.583-.62-4.318-3.318-6.344-4.751l-7.659 2.112C3.472 36.532 0 33.889 0 30.244z" fill="#C3F6EA"/><path d="M36.356 8.775v15.02a4.73 4.73 0 0 1-3.449 4.552l-11.61 3.266c-3.556 1-7.072-1.706-7.026-5.4.135-10.652.227-23.957-.05-25.447-.084-.089-.106-.138-.056-.138.02 0 .038.047.055.138.615.658 4.554 3.515 6.691 5.034l8.454-2.343c3.515-.974 6.991 1.67 6.991 5.318z" fill="#3A97F4"/><path fill-rule="evenodd" clip-rule="evenodd" d="M14.4 9.074c3.382-.633 6.577 1.991 6.533 5.514-.072 5.809-.13 12.382-.114 17.137-3.387.644-6.593-1.983-6.548-5.511.072-5.692.131-12.14.129-17.14z" fill="#C3F6EA" fill-opacity=".4"/><path d="M64.13 15.523h-3.28v6.038c0 .503.126.871.377 1.103.252.232.62.368 1.104.407.483.02 1.083.01 1.8-.03v3.397c-2.575.29-4.394.049-5.458-.726-1.045-.774-1.568-2.157-1.568-4.15v-6.039H54.58v-3.6h2.525V7.888l3.745-.029v4.064h3.28v3.6zM68.629 10.182c-.62 0-1.162-.223-1.626-.668-.445-.465-.668-1.006-.668-1.626 0-.619.223-1.16.668-1.625.464-.465 1.006-.697 1.626-.697.638 0 1.18.232 1.625.697.465.464.697 1.006.697 1.625 0 .62-.232 1.161-.697 1.626a2.212 2.212 0 0 1-1.626.668zM66.77 26.438V11.923h3.744v14.515h-3.744zM82.39 11.517c1.955 0 3.62.745 4.994 2.235 1.393 1.471 2.09 3.28 2.09 5.429 0 2.148-.697 3.967-2.09 5.457-1.374 1.471-3.039 2.207-4.993 2.207-2.032 0-3.6-.707-4.703-2.12v9.325h-3.745V11.923h3.745v1.713c1.103-1.413 2.67-2.119 4.703-2.119zm-3.57 10.625c.755.755 1.713 1.132 2.874 1.132s2.119-.378 2.874-1.132c.774-.774 1.161-1.761 1.161-2.961s-.387-2.178-1.161-2.932c-.755-.774-1.713-1.161-2.874-1.161s-2.12.387-2.874 1.16c-.755.755-1.132 1.733-1.132 2.933 0 1.2.377 2.187 1.132 2.96zM104.481 24.638c-1.49 1.471-3.309 2.207-5.457 2.207-2.148 0-3.968-.736-5.458-2.207-1.47-1.49-2.206-3.31-2.206-5.457 0-2.148.735-3.958 2.206-5.429 1.49-1.49 3.31-2.235 5.458-2.235s3.967.745 5.457 2.235c1.491 1.471 2.236 3.28 2.236 5.429 0 2.148-.745 3.967-2.236 5.457zm-8.273-2.583c.755.755 1.693 1.132 2.816 1.132 1.122 0 2.061-.378 2.816-1.132.754-.755 1.132-1.713 1.132-2.874s-.378-2.12-1.132-2.874c-.755-.755-1.694-1.132-2.816-1.132-1.123 0-2.061.377-2.816 1.132-.736.755-1.103 1.713-1.103 2.874 0 1.16.367 2.119 1.103 2.874zM117.421 11.517c1.587 0 2.894.532 3.919 1.597 1.045 1.064 1.568 2.535 1.568 4.412v8.912h-3.745v-8.447c0-.968-.261-1.703-.784-2.207-.522-.522-1.219-.784-2.09-.784-.968 0-1.742.3-2.322.9-.581.6-.871 1.5-.871 2.7v7.838h-3.745V11.923h3.745v1.626c.909-1.355 2.351-2.032 4.325-2.032zM126.105 26.438V5.247h3.745v21.191h-3.745zM135.136 10.182c-.62 0-1.162-.223-1.626-.668-.445-.465-.668-1.006-.668-1.626 0-.619.223-1.16.668-1.625.464-.465 1.006-.697 1.626-.697.638 0 1.18.232 1.625.697.465.464.697 1.006.697 1.625 0 .62-.232 1.161-.697 1.626a2.212 2.212 0 0 1-1.625.668zm-1.858 16.256V11.923h3.745v14.515h-3.745zM148.52 11.517c1.587 0 2.894.532 3.919 1.597 1.045 1.064 1.568 2.535 1.568 4.412v8.912h-3.745v-8.447c0-.968-.261-1.703-.784-2.207-.522-.522-1.219-.784-2.09-.784-.967 0-1.742.3-2.322.9-.581.6-.871 1.5-.871 2.7v7.838h-3.745V11.923h3.745v1.626c.91-1.355 2.351-2.032 4.325-2.032zM160.369 20.72c.503 1.819 1.867 2.728 4.093 2.728 1.432 0 2.516-.484 3.251-1.451h3.6c-1.08 2.67-4.122 4.848-6.909 4.848-2.4 0-4.326-.726-5.777-2.178-1.452-1.451-2.177-3.28-2.177-5.486 0-2.187.716-4.006 2.148-5.458 1.432-1.47 3.271-2.206 5.515-2.206 2.129 0 3.881.735 5.255 2.206 1.393 1.471 2.09 3.29 2.09 5.458 0 .484-.048.996-.145 1.538h-10.944zm-.058-2.904h7.402c-.213-.987-.658-1.722-1.335-2.206-.658-.484-1.413-.726-2.265-.726-1.006 0-1.838.262-2.496.784-.658.503-1.093 1.22-1.306 2.148z" fill="#fff"/></g><defs><clipPath id="a"><path d="M0 7.54A7.54 7.54 0 0 1 7.54 0H178.46A7.54 7.54 0 0 1 186 7.54V31.42a7.54 7.54 0 0 1-7.541 7.54H7.541A7.54 7.54 0 0 1 0 31.42V7.54z" fill="#fff"/></clipPath></defs></svg>