<svg width="40" height="40" viewBox="0 0 40 40" fill="none" xmlns="http://www.w3.org/2000/svg"><g clip-path="url(#a)"><path fill-rule="evenodd" clip-rule="evenodd" d="M8.802 0H31.2a8.837 8.837 0 0 1 8.802 8.802v22.377A8.84 8.84 0 0 1 31.2 40H8.802A8.84 8.84 0 0 1 0 31.179V8.802A8.837 8.837 0 0 1 8.802 0z" fill="#3A97F4"/><path d="M25.864 33.614H14.136a7.761 7.761 0 0 1-7.75-7.748v-11.73a7.762 7.762 0 0 1 7.75-7.75h11.728a7.762 7.762 0 0 1 7.75 7.75v11.73a7.762 7.762 0 0 1-7.75 7.748zM14.136 8.72a5.422 5.422 0 0 0-5.416 5.416v11.73a5.433 5.433 0 0 0 5.416 5.415h11.728a5.433 5.433 0 0 0 5.418-5.415v-11.73a5.433 5.433 0 0 0-5.418-5.416H14.136z" fill="#fff"/><path d="M20 26.972A6.972 6.972 0 1 1 26.972 20 6.986 6.986 0 0 1 20 26.972zm0-11.61a4.638 4.638 0 1 0 0 9.276 4.638 4.638 0 0 0 0-9.276zM28.947 12.63a1.677 1.677 0 1 1-3.353 0 1.677 1.677 0 0 1 3.353 0z" fill="#fff"/></g><defs><clipPath id="a"><path fill="#fff" d="M0 0h40v40H0z"/></clipPath></defs></svg>