<svg width="283" height="62" viewBox="0 0 283 62" fill="none" xmlns="http://www.w3.org/2000/svg"><path d="M0 48.129V26.53a7.527 7.527 0 0 1 5.497-7.248l16.646-4.661c5.657-1.584 11.245 2.72 11.172 8.594-.199 15.889-.328 35.37.085 37.578.125.134.159.207.083.207-.03 0-.058-.07-.083-.207-.928-.988-6.87-5.28-10.096-7.56l-12.187 3.361C5.525 58.137 0 53.93 0 48.129z" fill="#C3F6EA"/><path d="M57.858 13.965v23.9a7.527 7.527 0 0 1-5.49 7.247l-18.477 5.197c-5.658 1.591-11.254-2.715-11.18-8.592.215-16.954.36-38.127-.08-40.498-.133-.141-.169-.22-.088-.22.031.001.06.076.087.22.979 1.047 7.247 5.594 10.649 8.01L46.73 5.503c5.594-1.55 11.127 2.657 11.127 8.463z" fill="#3A97F4"/><path fill-rule="evenodd" clip-rule="evenodd" d="M22.916 14.44c5.382-1.007 10.468 3.169 10.398 8.775-.116 9.244-.208 19.705-.183 27.272-5.39 1.024-10.491-3.157-10.42-8.771.114-9.058.209-19.32.205-27.276z" fill="#C3F6EA" fill-opacity=".4"/><path d="M102.057 24.703h-5.22v9.609c0 .8.2 1.386.6 1.756.4.369.986.585 1.755.646.77.031 1.725.016 2.865-.046v5.405c-4.097.462-6.992.077-8.686-1.155-1.663-1.232-2.494-3.434-2.494-6.606v-9.61h-4.02v-5.728h4.02v-6.421l5.96-.046v6.467h5.22v5.729zM109.215 16.203c-.985 0-1.848-.355-2.587-1.063-.708-.74-1.062-1.601-1.062-2.587 0-.986.354-1.848 1.062-2.587.739-.74 1.602-1.109 2.587-1.109 1.016 0 1.879.37 2.587 1.109.739.739 1.109 1.601 1.109 2.587 0 .986-.37 1.848-1.109 2.587-.708.708-1.571 1.063-2.587 1.063zm-2.957 25.87V18.974h5.96v23.1h-5.96zM131.116 18.328c3.111 0 5.759 1.185 7.946 3.557 2.217 2.34 3.326 5.22 3.326 8.639 0 3.418-1.109 6.313-3.326 8.685-2.187 2.34-4.835 3.51-7.946 3.51-3.234 0-5.728-1.123-7.484-3.372v14.839h-5.959V18.974h5.959V21.7c1.756-2.248 4.25-3.372 7.484-3.372zm-5.682 16.908c1.201 1.201 2.725 1.802 4.573 1.802 1.848 0 3.373-.601 4.574-1.802 1.232-1.232 1.848-2.803 1.848-4.712 0-1.91-.616-3.465-1.848-4.666-1.201-1.232-2.726-1.848-4.574-1.848-1.848 0-3.372.616-4.573 1.848-1.201 1.2-1.802 2.756-1.802 4.666 0 1.91.601 3.48 1.802 4.712zM166.271 39.209c-2.371 2.34-5.266 3.51-8.685 3.51-3.419 0-6.314-1.17-8.685-3.51-2.341-2.372-3.511-5.267-3.511-8.685 0-3.419 1.17-6.299 3.511-8.64 2.371-2.37 5.266-3.556 8.685-3.556 3.419 0 6.314 1.185 8.685 3.557 2.372 2.34 3.557 5.22 3.557 8.639 0 3.418-1.185 6.313-3.557 8.685zm-13.166-4.112c1.201 1.201 2.695 1.802 4.481 1.802s3.28-.6 4.481-1.802c1.201-1.2 1.802-2.725 1.802-4.573 0-1.848-.601-3.373-1.802-4.574-1.201-1.2-2.695-1.802-4.481-1.802s-3.28.601-4.481 1.802c-1.17 1.201-1.756 2.726-1.756 4.574 0 1.848.586 3.372 1.756 4.573zM186.864 18.328c2.525 0 4.604.847 6.236 2.54 1.664 1.694 2.495 4.035 2.495 7.023v14.182h-5.959V28.63c0-1.54-.416-2.71-1.248-3.511-.831-.832-1.94-1.248-3.326-1.248-1.54 0-2.772.478-3.696 1.432-.924.955-1.386 2.387-1.386 4.297v12.473h-5.959V18.974h5.959v2.587c1.448-2.155 3.742-3.233 6.884-3.233zM200.684 42.073V8.35h5.959v33.724h-5.959zM215.054 16.203c-.985 0-1.847-.355-2.587-1.063-.708-.74-1.062-1.601-1.062-2.587 0-.986.354-1.848 1.062-2.587.74-.74 1.602-1.109 2.587-1.109 1.017 0 1.879.37 2.587 1.109.74.739 1.109 1.601 1.109 2.587 0 .986-.369 1.848-1.109 2.587-.708.708-1.57 1.063-2.587 1.063zm-2.956 25.87V18.974h5.959v23.1h-5.959zM236.355 18.328c2.525 0 4.604.847 6.236 2.54 1.664 1.694 2.495 4.035 2.495 7.023v14.182h-5.959V28.63c0-1.54-.416-2.71-1.248-3.511-.831-.832-1.94-1.248-3.326-1.248-1.54 0-2.772.478-3.696 1.432-.924.955-1.386 2.387-1.386 4.297v12.473h-5.959V18.974h5.959v2.587c1.448-2.155 3.742-3.233 6.884-3.233zM255.21 32.972c.801 2.895 2.972 4.343 6.514 4.343 2.279 0 4.004-.77 5.174-2.31h5.729c-1.718 4.25-6.56 7.715-10.995 7.715-3.819 0-6.884-1.155-9.194-3.465-2.31-2.31-3.464-5.22-3.464-8.731 0-3.48 1.139-6.376 3.418-8.685 2.279-2.341 5.205-3.511 8.778-3.511 3.388 0 6.175 1.17 8.361 3.51 2.218 2.341 3.327 5.236 3.327 8.686 0 .77-.077 1.586-.231 2.448H255.21zm-.092-4.62h11.78c-.339-1.57-1.047-2.74-2.125-3.51-1.047-.77-2.248-1.155-3.603-1.155-1.602 0-2.926.415-3.973 1.247-1.047.8-1.74 1.94-2.079 3.418z" fill="#333"/></svg>