<svg width="100" height="100" viewBox="0 0 100 100" fill="none" xmlns="http://www.w3.org/2000/svg"><rect width="100" height="100" rx="12" fill="#87BD75"/><path d="M73.104 17.857h-8.67a1.815 1.815 0 0 0 0 3.63h8.67a3.07 3.07 0 0 1 3.065 3.065v8.67a1.815 1.815 0 0 0 3.63 0v-8.67a6.703 6.703 0 0 0-6.695-6.695zM19.672 35.036a1.815 1.815 0 0 0 1.815-1.814v-8.67a3.07 3.07 0 0 1 3.065-3.065h8.67a1.815 1.815 0 0 0 0-3.63h-8.67a6.703 6.703 0 0 0-6.695 6.695v8.67c0 1.002.813 1.814 1.815 1.814zM33.221 76.17h-8.669a3.07 3.07 0 0 1-3.065-3.066v-8.67a1.815 1.815 0 0 0-3.63 0v8.67a6.703 6.703 0 0 0 6.695 6.695h8.67a1.815 1.815 0 0 0 0-3.63zM77.984 62.62a1.815 1.815 0 0 0-1.815 1.815v8.67a3.069 3.069 0 0 1-3.065 3.065h-8.67a1.815 1.815 0 0 0 0 3.63h8.67a6.703 6.703 0 0 0 6.695-6.696v-8.67a1.815 1.815 0 0 0-1.815-1.814z" fill="#fff"/><path d="M71.935 70.12V50.765a1.815 1.815 0 0 0-1.815-1.815H50.764a1.815 1.815 0 0 0-1.815 1.815V70.12c0 1.002.812 1.814 1.815 1.814H70.12a1.815 1.815 0 0 0 1.815-1.814zm-3.63-1.814H52.578V52.579h15.727v15.727zM55.603 44.836h13.55a1.815 1.815 0 0 0 1.814-1.814v-13.55a1.815 1.815 0 0 0-1.815-1.815h-13.55a1.815 1.815 0 0 0-1.814 1.815v13.55c0 1.002.812 1.814 1.815 1.814zm1.814-13.55h9.92v9.92h-9.92v-9.92zM44.956 25.72h-17.42a1.815 1.815 0 0 0-1.815 1.815v17.421c0 1.003.812 1.815 1.814 1.815h17.421a1.815 1.815 0 0 0 1.815-1.815v-17.42a1.815 1.815 0 0 0-1.815-1.815zm-1.814 17.422H29.35V29.35h13.792v13.792zM43.02 68.306H29.35V52.7a1.815 1.815 0 0 0-3.63 0v17.42c0 1.003.813 1.815 1.816 1.815H43.02a1.815 1.815 0 0 0 0-3.63z" fill="#fff"/><path d="M37.093 62.378V52.7a1.815 1.815 0 0 0-3.63 0v9.678a1.815 1.815 0 0 0 3.63 0zM43.02 50.885a1.815 1.815 0 0 0-1.814 1.815v9.678a1.815 1.815 0 0 0 3.63 0V52.7a1.815 1.815 0 0 0-1.815-1.815zM58.506 62.256h3.872a1.815 1.815 0 0 0 0-3.629h-3.872a1.815 1.815 0 0 0 0 3.63zM36.246 39.029a1.815 1.815 0 0 0 1.815-1.815V35.28a1.815 1.815 0 1 0-3.63 0v1.935c0 1.002.813 1.815 1.815 1.815z" fill="#fff"/></svg>