<svg width="100" height="100" viewBox="0 0 100 100" fill="none" xmlns="http://www.w3.org/2000/svg"><rect width="100" height="100" rx="12" fill="#A48CEA"/><path d="M70.495 44.594c5.626 0 10.21-4.573 10.21-10.21v-6.316c0-5.638-4.572-10.21-10.21-10.21H28.068c-5.638 0-10.21 4.572-10.21 10.21v6.327c0 5.626 4.572 10.211 10.21 10.211h26.204v11.445l-4.09 5.988a7.545 7.545 0 0 0-.592 7.44l4.84 10.32c.277.593.882.98 1.536.98a1.689 1.689 0 0 0 1.524-2.408l-4.84-10.32a4.179 4.179 0 0 1 .328-4.1l1.282-1.888v.714c0 .932.762 1.694 1.694 1.694.931 0 1.693-.762 1.693-1.694v-21.86c0-.654.533-1.187 1.186-1.187.653 0 1.185.533 1.185 1.186v17.869c0 .931.763 1.694 1.694 1.694.932 0 1.694-.763 1.694-1.694v-5.638c0-.653.532-1.185 1.185-1.185.654 0 1.186.532 1.186 1.185v5.638c0 .931.762 1.694 1.694 1.694.931 0 1.694-.763 1.694-1.694v-5.638c0-.653.532-1.185 1.185-1.185s1.186.532 1.186 1.185v5.638c0 .931.762 1.694 1.693 1.694.932 0 1.694-.763 1.694-1.694v-3.52c0-.654.532-1.186 1.186-1.186.653 0 1.185.532 1.185 1.185v10.114c0 2.65-.399 5.263-1.197 7.791l-1.694 5.396a1.687 1.687 0 0 0 1.113 2.117c.17.048.339.072.508.072.738 0 1.391-.471 1.621-1.185l1.694-5.396a29.402 29.402 0 0 0 1.343-8.807V55.252a4.577 4.577 0 0 0-4.573-4.573c-.593 0-1.174.109-1.706.327a4.607 4.607 0 0 0-4.053-2.456 4.51 4.51 0 0 0-2.88 1.028 4.534 4.534 0 0 0-2.879-1.028c-.399 0-.798.048-1.185.157v-4.113h7.09zm-11.662-8.251a4.577 4.577 0 0 0-4.573 4.573v.533H28.068a7.004 7.004 0 0 1-4.985-2.081 7.003 7.003 0 0 1-2.08-4.985v-6.315c0-1.875.738-3.641 2.08-4.984a7.004 7.004 0 0 1 4.985-2.081h42.44c1.875 0 3.64.738 4.984 2.08a7.021 7.021 0 0 1 2.069 4.985v6.327a7.004 7.004 0 0 1-2.081 4.985 7.004 7.004 0 0 1-4.985 2.08h-7.09v-.532a4.572 4.572 0 0 0-4.572-4.585z" fill="#fff"/></svg>